<?xml version="1.0" encoding="UTF-8" standalone="no"?>
<!-- Generator: Adobe Illustrator 19.0.0, SVG Export Plug-In . SVG Version: 6.00 Build 0)  -->

<svg
   xmlns:dc="http://purl.org/dc/elements/1.1/"
   xmlns:cc="http://creativecommons.org/ns#"
   xmlns:rdf="http://www.w3.org/1999/02/22-rdf-syntax-ns#"
   xmlns:svg="http://www.w3.org/2000/svg"
   xmlns="http://www.w3.org/2000/svg"
   xmlns:sodipodi="http://sodipodi.sourceforge.net/DTD/sodipodi-0.dtd"
   xmlns:inkscape="http://www.inkscape.org/namespaces/inkscape"
   version="1.1"
   id="Layer_1"
   x="0px"
   y="0px"
   viewBox="0 0 512 512"
   style="enable-background:new 0 0 512 512;"
   xml:space="preserve"
   sodipodi:docname="object_advancedhrm.svg"
   inkscape:version="0.92.5 (2060ec1f9f, 2020-04-08)"><metadata
   id="metadata73"><rdf:RDF><cc:Work
       rdf:about=""><dc:format>image/svg+xml</dc:format><dc:type
         rdf:resource="http://purl.org/dc/dcmitype/StillImage" /></cc:Work></rdf:RDF></metadata><defs
   id="defs71" /><sodipodi:namedview
   pagecolor="#505050"
   bordercolor="#ffffff"
   borderopacity="1"
   objecttolerance="10"
   gridtolerance="10"
   guidetolerance="10"
   inkscape:pageopacity="0"
   inkscape:pageshadow="2"
   inkscape:window-width="1920"
   inkscape:window-height="1011"
   id="namedview69"
   showgrid="false"
   inkscape:zoom="0.4609375"
   inkscape:cx="256"
   inkscape:cy="256"
   inkscape:window-x="1920"
   inkscape:window-y="0"
   inkscape:window-maximized="1"
   inkscape:current-layer="Layer_1" />
<circle
   style="fill:#BBBBBB;"
   cx="82.76"
   cy="371.76"
   r="41.384"
   id="circle2" />
<g
   id="g8"
   style="fill:#00384e;fill-opacity:1">
	<path
   style="fill:#00384e;fill-opacity:1"
   d="M80.92,512l-39.536-86.44c0,0-41.384,0.92-41.384,38.624V512H80.92z"
   id="path4" />
	<path
   style="fill:#00384e;fill-opacity:1"
   d="M84.6,512l39.544-86.44c0,0,41.384,0.92,41.384,38.624V512H84.6z"
   id="path6" />
</g>
<polygon
   style="fill:#cb4f24;fill-opacity:1"
   points="53.84,425.56 82.76,489.928 111.68,425.56 "
   id="polygon10" />
<circle
   style="fill:#BBBBBB;"
   cx="429.24"
   cy="41.384"
   r="41.384"
   id="circle12" />
<g
   id="g18"
   style="fill:#00384e;fill-opacity:1">
	<path
   style="fill:#00384e;fill-opacity:1"
   d="M427.4,181.664L387.856,95.2c0,0-41.384,0.92-41.384,38.624v47.816L427.4,181.664z"
   id="path14" />
	<path
   style="fill:#00384e;fill-opacity:1"
   d="M431.08,181.664L470.616,95.2c0,0,41.384,0.944,41.384,38.648v47.816H431.08z"
   id="path16" />
</g>
<polygon
   style="fill:#cb4f24;fill-opacity:1"
   points="400.32,95.224 429.24,159.592 458.16,95.224 "
   id="polygon20" />
<circle
   style="fill:#BBBBBB;"
   cx="256"
   cy="206.552"
   r="41.384"
   id="circle22" />
<g
   id="g28"
   style="fill:#00384e;fill-opacity:1">
	<path
   style="fill:#00384e;fill-opacity:1"
   d="M254.16,346.832l-39.544-86.44c0,0-41.384,0.92-41.384,38.624v47.816H254.16z"
   id="path24" />
	<path
   style="fill:#00384e;fill-opacity:1"
   d="M257.84,346.832l39.544-86.44c0,0,41.384,0.92,41.384,38.624v47.816H257.84z"
   id="path26" />
</g>
<polygon
   style="fill:#cb4f24;fill-opacity:1"
   points="227.08,260.392 256,324.76 284.92,260.392 "
   id="polygon30" />
<g
   id="g36">
	<polygon
   style="fill:#CCCCCC;"
   points="90.768,252.552 74.768,252.552 74.768,74.76 252.552,74.76 252.552,90.76 90.768,90.76  "
   id="polygon32" />
	<polygon
   style="fill:#CCCCCC;"
   points="437.24,437.232 259.448,437.232 259.448,421.232 421.24,421.232 421.24,259.448    437.24,259.448  "
   id="polygon34" />
</g>
<g
   id="g38">
</g>
<g
   id="g40">
</g>
<g
   id="g42">
</g>
<g
   id="g44">
</g>
<g
   id="g46">
</g>
<g
   id="g48">
</g>
<g
   id="g50">
</g>
<g
   id="g52">
</g>
<g
   id="g54">
</g>
<g
   id="g56">
</g>
<g
   id="g58">
</g>
<g
   id="g60">
</g>
<g
   id="g62">
</g>
<g
   id="g64">
</g>
<g
   id="g66">
</g>
</svg>